<?xml version="1.0" standalone="no"?>
<!DOCTYPE svg PUBLIC "-//W3C//DTD SVG 20010904//EN"
 "http://www.w3.org/TR/2001/REC-SVG-20010904/DTD/svg10.dtd">
<svg version="1.0" xmlns="http://www.w3.org/2000/svg"
 width="1200.000000pt" height="1200.000000pt" viewBox="0 0 1200.000000 1200.000000"
 preserveAspectRatio="xMidYMid meet">

<g transform="translate(0.000000,1200.000000) scale(0.100000,-0.100000)"
fill="#C41E3A" stroke="none">
<path d="M4751 9327 c-53 -20 -111 -76 -137 -131 -22 -47 -24 -64 -24 -208 l0
-158 -602 0 c-714 -1 -773 -6 -962 -87 -290 -124 -507 -377 -594 -692 l-27
-96 -3 -2160 c-2 -1517 0 -2185 8 -2244 43 -325 257 -629 548 -775 82 -42 149
-67 242 -93 62 -17 192 -18 2800 -18 l2735 0 85 23 c412 112 716 454 770 867
8 67 10 641 8 2245 l-3 2155 -26 95 c-106 383 -381 651 -769 752 -83 21 -103
22 -737 25 l-653 4 0 157 c0 143 -2 161 -24 207 -45 98 -138 152 -249 143 -72
-6 -113 -24 -160 -72 -63 -63 -72 -93 -75 -273 l-4 -163 -898 0 -899 0 -3 163
c-2 136 -6 168 -22 201 -24 47 -74 99 -119 122 -41 22 -161 28 -206 11z m-161
-1176 c0 -150 1 -160 26 -210 80 -159 291 -187 415 -54 59 63 69 102 69 276
l0 152 900 0 900 0 0 -152 c0 -174 10 -213 69 -276 120 -128 321 -108 408 41
27 45 28 54 33 215 l5 168 616 -1 c670 0 676 -1 783 -58 65 -34 178 -147 210
-209 56 -112 60 -144 61 -461 l0 -292 -3085 0 -3085 0 0 292 c1 254 3 301 19
353 49 163 155 279 316 347 l55 23 635 5 c349 3 638 4 643 2 4 -2 7 -74 7
-161z m4500 -2918 c0 -880 -5 -1568 -10 -1608 -27 -209 -176 -379 -378 -434
l-78 -21 -2625 0 c-2624 0 -2624 0 -2699 21 -95 26 -155 59 -217 118 -93 89
-148 194 -164 318 -4 37 -8 760 -9 1606 l0 1537 3090 0 3090 0 0 -1537z"/>
<path d="M3885 6251 c-192 -47 -261 -288 -123 -430 65 -67 94 -75 283 -79 191
-4 229 2 302 51 144 96 144 318 0 414 -27 18 -65 37 -85 43 -42 11 -331 12
-377 1z"/>
<path d="M5159 6246 c-90 -24 -159 -97 -180 -192 -30 -135 56 -273 191 -303
73 -17 327 -14 390 5 67 20 150 99 168 160 41 141 -35 288 -169 328 -65 20
-331 21 -400 2z"/>
<path d="M6436 6244 c-63 -20 -147 -102 -164 -160 -29 -100 -9 -187 63 -261
69 -71 114 -83 310 -83 191 0 238 12 305 80 49 48 80 118 80 180 0 90 -64 191
-148 232 -43 21 -61 23 -222 25 -135 2 -186 -1 -224 -13z"/>
<path d="M7720 6244 c-153 -55 -221 -227 -144 -365 34 -60 100 -112 167 -130
26 -7 106 -9 212 -7 150 3 175 6 211 25 159 84 195 286 72 412 -67 68 -93 75
-293 78 -146 2 -189 0 -225 -13z"/>
<path d="M3874 5219 c-59 -17 -125 -71 -155 -128 -70 -130 -17 -286 119 -353
44 -22 59 -23 232 -23 205 0 238 8 308 74 71 66 97 194 58 284 -27 61 -96 123
-157 141 -59 18 -349 21 -405 5z"/>
<path d="M5146 5214 c-71 -22 -140 -95 -162 -170 -43 -148 46 -290 201 -325
74 -16 348 -7 396 13 167 71 212 293 85 419 -68 67 -92 74 -291 76 -139 2
-191 -1 -229 -13z"/>
<path d="M6450 5221 c-144 -44 -221 -189 -178 -333 16 -53 78 -121 136 -150
44 -22 58 -23 232 -23 168 0 189 2 232 22 91 42 158 141 158 233 0 105 -81
215 -181 244 -56 17 -350 22 -399 7z"/>
<path d="M7717 5214 c-56 -18 -123 -79 -151 -139 -30 -62 -27 -147 7 -217 28
-58 70 -97 135 -126 30 -14 70 -17 222 -17 173 0 188 2 232 23 59 29 94 64
125 126 21 42 24 60 21 121 -3 63 -8 79 -39 126 -25 38 -52 63 -90 84 -54 30
-55 30 -234 32 -138 2 -191 -1 -228 -13z"/>
<path d="M3863 4186 c-130 -41 -202 -186 -163 -326 12 -45 61 -104 114 -138
40 -27 44 -27 240 -30 224 -4 252 2 319 63 137 126 93 360 -80 425 -46 17 -77
20 -221 19 -108 0 -182 -5 -209 -13z"/>
<path d="M5160 4191 c-85 -27 -152 -95 -177 -180 -26 -91 -1 -181 69 -251 63
-63 91 -70 303 -70 179 0 193 2 240 24 194 92 192 365 -3 462 -31 16 -64 19
-222 21 -102 1 -196 -2 -210 -6z"/>
<path d="M6435 4188 c-43 -15 -103 -61 -131 -99 -71 -96 -53 -258 37 -333 71
-60 96 -66 304 -66 212 0 240 7 303 70 98 98 105 244 16 348 -68 80 -92 87
-309 89 -118 1 -201 -2 -220 -9z"/>
<path d="M7730 4191 c-187 -57 -248 -301 -108 -432 66 -62 93 -69 298 -69 103
0 202 5 224 11 52 14 141 103 155 155 41 147 -31 289 -166 330 -50 15 -357 19
-403 5z"/>
</g>
</svg>
