<?xml version="1.0" standalone="no"?>
<!DOCTYPE svg PUBLIC "-//W3C//DTD SVG 20010904//EN"
 "http://www.w3.org/TR/2001/REC-SVG-20010904/DTD/svg10.dtd">
<svg version="1.0" xmlns="http://www.w3.org/2000/svg"
 width="512.000000pt" height="512.000000pt" viewBox="0 0 512.000000 512.000000"
 preserveAspectRatio="xMidYMid meet">

<g transform="translate(0.000000,512.000000) scale(0.100000,-0.100000)"
fill="#C41E3A" stroke="none">
<path d="M2370 5070 c-657 -81 -1215 -523 -1429 -1133 -87 -249 -119 -514 -91
-762 49 -428 256 -824 575 -1105 134 -119 341 -246 503 -310 l32 -12 0 -814 0
-814 33 -36 c24 -26 43 -37 75 -41 42 -6 48 -2 262 141 121 80 224 146 230
146 6 0 109 -66 230 -146 214 -143 220 -147 262 -141 32 4 51 15 75 41 l33 36
0 372 0 373 248 -248 c211 -211 253 -248 284 -253 42 -7 96 15 117 48 8 13 38
137 66 277 l50 254 245 48 c135 26 259 56 277 65 41 21 67 75 59 122 -5 32
-61 92 -422 453 l-416 416 54 46 c127 108 274 304 367 487 254 498 254 1059 0
1560 -245 483 -698 818 -1241 916 -102 18 -376 26 -478 14z m460 -255 c540
-106 972 -488 1138 -1005 53 -166 66 -256 66 -450 0 -128 -4 -199 -18 -265
-122 -615 -576 -1069 -1191 -1191 -125 -25 -405 -25 -530 0 -547 109 -977 487
-1143 1006 -53 166 -66 256 -66 450 0 194 13 284 66 450 41 127 94 241 164
347 247 381 630 618 1094 677 73 9 338 -3 420 -19z m980 -3250 c184 -184 332
-335 329 -335 -28 0 -355 -73 -377 -84 -15 -8 -33 -25 -40 -38 -9 -18 -82
-352 -82 -377 0 -3 -108 102 -240 234 l-240 240 0 270 1 270 152 76 c84 42
154 77 157 77 3 1 156 -149 340 -333z m-1500 93 c142 -23 492 -13 593 18 16 5
17 -30 17 -640 0 -355 -2 -646 -5 -646 -3 0 -74 46 -158 102 -203 137 -191
137 -394 0 -84 -56 -155 -102 -158 -102 -3 0 -5 291 -5 646 0 610 1 645 18
640 9 -3 51 -11 92 -18z"/>
<path d="M2315 4580 c-602 -127 -1022 -668 -991 -1275 9 -188 43 -319 126
-491 166 -342 482 -586 870 -670 117 -26 362 -26 480 -1 312 67 570 229 754
475 167 222 246 462 246 747 0 144 -16 248 -57 379 -135 430 -509 757 -962
841 -119 22 -350 19 -466 -5z m485 -251 c363 -93 636 -367 731 -734 33 -130
34 -342 0 -469 -97 -372 -373 -648 -736 -737 -560 -136 -1120 234 -1220 806
-84 483 209 964 678 1115 171 55 378 62 547 19z"/>
<path d="M2502 4103 c-27 -13 -46 -42 -121 -192 l-90 -177 -188 -28 c-103 -15
-196 -32 -206 -38 -29 -15 -57 -70 -57 -112 0 -37 8 -47 144 -185 l144 -146
-29 -170 c-16 -93 -29 -183 -29 -198 0 -64 54 -117 121 -117 20 0 92 31 201
87 l169 87 168 -87 c108 -56 179 -87 200 -87 67 0 121 53 121 117 0 15 -13
105 -29 198 l-29 170 140 141 c123 124 140 145 145 181 6 46 -15 95 -50 117
-12 8 -107 27 -210 43 l-189 28 -89 176 c-78 154 -93 179 -123 193 -43 20 -72
20 -114 -1z m108 -470 c25 -48 56 -95 70 -105 14 -9 59 -22 100 -28 138 -20
133 -11 52 -93 -92 -94 -96 -105 -76 -223 9 -53 14 -97 11 -100 -2 -2 -43 16
-91 41 -48 25 -99 45 -115 45 -16 0 -68 -21 -116 -46 -48 -25 -89 -43 -92 -40
-3 2 2 47 11 100 20 118 16 129 -76 223 -81 82 -86 73 52 93 41 6 86 19 100
28 14 10 45 57 70 105 25 48 47 87 50 87 3 0 25 -39 50 -87z"/>
</g>
</svg>
