<?xml version="1.0" standalone="no"?>
<!DOCTYPE svg PUBLIC "-//W3C//DTD SVG 20010904//EN"
 "http://www.w3.org/TR/2001/REC-SVG-20010904/DTD/svg10.dtd">
<svg version="1.0" xmlns="http://www.w3.org/2000/svg"
 width="512.000000pt" height="512.000000pt" viewBox="0 0 512.000000 512.000000"
 preserveAspectRatio="xMidYMid meet">

<g transform="translate(0.000000,512.000000) scale(0.100000,-0.100000)"
fill="#C41E3A" stroke="none">
<path d="M2872 4590 c-64 -39 -72 -66 -72 -246 l0 -160 -52 -13 c-216 -54
-511 -211 -696 -371 -70 -60 -77 -70 -80 -107 -2 -33 1 -44 20 -57 42 -30 74
-20 151 45 585 495 1429 544 2058 120 200 -135 360 -295 489 -492 191 -291
294 -663 277 -1004 -22 -437 -191 -822 -498 -1140 -74 -76 -89 -97 -89 -123 0
-42 31 -72 73 -72 28 0 46 14 142 113 141 144 226 265 320 450 79 157 130 299
164 457 159 745 -161 1521 -803 1944 -122 80 -322 176 -455 216 l-111 35 0
155 c0 175 -9 207 -69 247 -34 23 -37 23 -385 23 -333 0 -353 -1 -384 -20z
m688 -251 l0 -121 -77 9 c-99 10 -354 10 -455 0 l-78 -8 0 121 0 120 305 0
305 0 0 -121z"/>
<path d="M3055 3769 c-299 -43 -586 -190 -803 -410 -184 -187 -303 -401 -370
-669 -25 -97 -27 -121 -27 -315 0 -196 2 -217 28 -319 109 -434 375 -762 771
-952 214 -102 399 -140 651 -131 235 8 393 49 596 154 138 71 252 158 369 280
187 194 307 422 365 693 24 114 30 354 11 475 -47 310 -178 568 -400 791 -272
274 -617 416 -999 413 -73 -1 -159 -5 -192 -10z m125 -256 c0 -106 2 -119 22
-140 30 -33 80 -31 107 3 19 24 21 41 21 141 l0 115 53 -7 c157 -20 300 -62
422 -122 86 -43 221 -132 254 -167 l25 -26 -82 -84 c-91 -93 -100 -119 -57
-161 42 -43 68 -34 161 57 l84 82 26 -25 c33 -31 123 -166 162 -244 61 -123
108 -284 126 -432 l7 -53 -114 0 c-100 0 -117 -3 -141 -21 -33 -26 -35 -73 -4
-106 20 -22 29 -23 140 -23 l119 0 -7 -52 c-28 -234 -112 -447 -246 -626 l-61
-82 -87 85 c-97 94 -122 104 -165 60 -43 -42 -34 -68 55 -159 44 -45 80 -87
80 -92 0 -17 -154 -124 -251 -174 -118 -61 -244 -103 -368 -124 -144 -24 -131
-34 -131 99 0 110 -1 117 -25 140 -30 31 -71 32 -102 3 -22 -20 -23 -29 -23
-140 0 -137 13 -126 -131 -102 -214 37 -398 117 -572 252 l-58 44 85 88 c47
48 86 95 86 104 0 30 -29 73 -52 80 -42 11 -50 6 -139 -80 l-87 -86 -61 82
c-34 45 -76 109 -95 143 -73 131 -136 326 -151 470 l-7 67 116 0 c111 0 118 1
141 25 32 31 32 69 0 100 -23 24 -30 25 -141 25 l-116 0 7 68 c22 210 113 435
248 615 l59 78 88 -85 c93 -91 118 -102 159 -68 11 9 24 32 27 50 6 30 1 38
-80 121 l-87 89 81 60 c152 113 360 204 530 232 41 6 82 13 90 15 62 12 60 15
60 -112z"/>
<path d="M3223 3015 c-16 -7 -33 -20 -37 -30 -3 -9 -6 -151 -6 -316 l0 -300
25 -24 c46 -47 61 -38 232 136 174 177 186 197 139 244 -43 43 -69 34 -162
-57 l-84 -82 0 187 c0 118 -4 195 -11 211 -16 34 -57 47 -96 31z"/>
<path d="M1765 3498 c-54 -63 -141 -208 -201 -333 -172 -362 -218 -775 -134
-1183 110 -528 470 -1001 960 -1260 537 -283 1206 -282 1740 5 127 68 150 87
150 129 0 42 -29 74 -69 74 -17 0 -58 -16 -92 -36 -359 -211 -803 -283 -1217
-198 -211 43 -460 153 -642 282 -122 86 -316 280 -402 402 -367 519 -420 1188
-141 1755 25 50 78 140 119 201 42 63 74 122 74 136 0 34 -39 68 -77 68 -25 0
-40 -9 -68 -42z"/>
<path d="M562 3287 c-29 -31 -28 -72 3 -102 l24 -25 334 0 c323 0 335 1 361
21 34 27 36 79 4 109 -21 19 -33 20 -363 20 l-342 0 -21 -23z"/>
<path d="M325 2845 c-14 -13 -25 -36 -25 -50 0 -14 11 -37 25 -50 l24 -25 404
0 c394 0 405 1 431 21 33 26 36 79 6 109 -19 19 -33 20 -430 20 l-411 0 -24
-25z"/>
<path d="M21 2404 c-26 -33 -27 -65 -2 -95 l19 -24 509 -3 c505 -2 510 -2 536
18 34 27 37 80 7 110 -19 19 -33 20 -534 20 l-515 0 -20 -26z"/>
<path d="M343 2020 c-45 -18 -55 -72 -22 -114 l20 -26 415 0 c401 0 415 1 434
20 30 30 27 83 -6 109 -26 20 -37 21 -423 20 -218 0 -406 -4 -418 -9z"/>
<path d="M565 1565 c-32 -31 -33 -74 -2 -103 23 -22 28 -22 365 -22 329 0 343
1 362 20 30 30 27 83 -6 109 -26 20 -38 21 -361 21 l-334 0 -24 -25z"/>
</g>
</svg>
