<?xml version="1.0" standalone="no"?>
<!DOCTYPE svg PUBLIC "-//W3C//DTD SVG 20010904//EN"
 "http://www.w3.org/TR/2001/REC-SVG-20010904/DTD/svg10.dtd">
<svg version="1.0" xmlns="http://www.w3.org/2000/svg"
 width="1200.000000pt" height="1200.000000pt" viewBox="0 0 1200.000000 1200.000000"
 preserveAspectRatio="xMidYMid meet">

<g transform="translate(0.000000,1200.000000) scale(0.100000,-0.100000)"
fill="#000000" stroke="none">
<path d="M6265 11011 c-251 -62 -349 -394 -173 -587 79 -86 142 -111 323 -129
83 -9 175 -20 205 -25 30 -5 98 -16 150 -25 139 -24 402 -90 558 -142 648
-213 1229 -571 1717 -1058 721 -719 1159 -1650 1255 -2665 8 -93 16 -127 40
-177 129 -264 501 -271 640 -11 46 85 50 172 20 408 -111 894 -445 1716 -987
2428 -653 859 -1558 1491 -2573 1796 -428 129 -1024 224 -1175 187z"/>
<path d="M2245 10313 c-348 -45 -619 -177 -860 -418 -211 -211 -332 -431 -397
-728 -21 -93 -23 -127 -23 -397 1 -608 77 -1198 236 -1834 27 -110 56 -220 64
-245 116 -375 208 -638 303 -861 98 -230 119 -277 226 -490 389 -776 882
-1458 1496 -2070 1098 -1095 2480 -1839 3990 -2149 471 -97 923 -147 1405
-158 305 -6 388 0 560 43 455 114 849 481 1000 929 67 201 68 213 72 755 3
272 2 509 -2 526 -3 18 -22 51 -43 73 l-37 41 -1081 360 c-1033 344 -1083 360
-1128 351 -25 -5 -61 -20 -78 -33 -19 -15 -173 -236 -363 -519 -369 -553 -361
-543 -465 -536 -60 4 -256 82 -512 205 -634 304 -1289 757 -1818 1258 -47 44
-114 107 -149 140 -100 93 -372 390 -516 562 -479 574 -862 1204 -1122 1842
-46 113 -54 143 -50 181 8 90 12 94 530 439 265 177 493 332 505 344 30 27 48
62 57 108 6 31 -45 193 -354 1121 -387 1160 -368 1110 -448 1151 -28 14 -87
16 -500 15 -257 -1 -481 -4 -498 -6z"/>
<path d="M6258 9561 c-72 -23 -117 -51 -163 -103 -112 -123 -124 -305 -30
-443 68 -99 141 -138 302 -160 727 -100 1372 -455 1838 -1012 347 -416 562
-895 644 -1435 27 -176 47 -230 111 -295 69 -70 142 -105 234 -111 172 -11
317 89 368 252 25 83 22 161 -18 373 -93 505 -270 945 -547 1358 -570 848
-1451 1416 -2438 1569 -194 30 -225 31 -301 7z"/>
<path d="M6260 8111 c-94 -29 -180 -104 -226 -197 -25 -52 -29 -70 -29 -149 0
-76 4 -99 26 -146 32 -68 88 -131 144 -164 23 -14 87 -36 143 -50 284 -70 523
-205 715 -404 185 -192 305 -411 371 -679 28 -114 42 -146 88 -197 109 -124
284 -159 432 -86 77 38 128 92 168 177 25 54 30 75 29 141 -1 192 -151 585
-317 833 -98 145 -144 201 -278 336 -184 183 -325 287 -546 398 -284 144 -595
225 -720 187z"/>
</g>
</svg>
