<?xml version="1.0" standalone="no"?>
<!DOCTYPE svg PUBLIC "-//W3C//DTD SVG 20010904//EN"
 "http://www.w3.org/TR/2001/REC-SVG-20010904/DTD/svg10.dtd">
<svg version="1.0" xmlns="http://www.w3.org/2000/svg"
 width="360.000000pt" height="360.000000pt" viewBox="0 0 360.000000 360.000000"
 preserveAspectRatio="xMidYMid meet">

<g transform="translate(0.000000,360.000000) scale(0.100000,-0.100000)"
fill="#C41E3A" stroke="none">
<path d="M1637 3130 c-192 -35 -370 -131 -503 -272 -151 -161 -235 -348 -250
-563 -23 -319 146 -641 713 -1365 85 -107 164 -208 176 -224 13 -17 28 -27 34
-23 7 4 41 45 75 90 35 45 136 174 224 287 362 462 543 773 599 1024 23 103
16 288 -14 394 -86 296 -319 531 -621 627 -73 22 -107 27 -235 30 -82 2 -172
0 -198 -5z m305 -666 c65 -30 121 -89 153 -164 29 -66 27 -189 -4 -250 -34
-66 -109 -134 -178 -160 -142 -54 -321 12 -389 142 -46 88 -48 212 -4 297 21
42 92 111 139 135 81 43 187 42 283 0z"/>
<path d="M2083 962 c-8 -9 -68 -83 -131 -165 -63 -82 -121 -151 -129 -154 -34
-13 -63 13 -182 167 -137 178 -127 172 -235 144 -138 -35 -263 -119 -287 -191
-31 -94 59 -193 229 -251 32 -12 109 -30 171 -42 101 -19 137 -21 320 -17 272
6 419 39 543 121 102 67 130 132 92 212 -32 67 -170 146 -307 177 -61 14 -69
14 -84 -1z"/>
</g>
</svg>
